<svg width="58" height="58" viewBox="0 0 58 58" fill="none" xmlns="http://www.w3.org/2000/svg">
<g filter="url(#filter0_d_302_1493)">
<path d="M29 9.66699C38.3427 9.66699 45.9168 17.2403 45.917 26.583C45.917 39.4566 31.966 46.8861 29.4023 48.1426C29.1466 48.2679 28.8534 48.2679 28.5977 48.1426C26.034 46.8861 12.083 39.4566 12.083 26.583C12.0832 17.2403 19.6573 9.66699 29 9.66699ZM29 19.333C24.996 19.333 21.7502 22.5791 21.75 26.583C21.75 30.5871 24.9959 33.833 29 33.833C33.0041 33.833 36.25 30.5871 36.25 26.583C36.2498 22.5791 33.004 19.333 29 19.333Z" fill="#F0E685"/>
</g>
<defs>
<filter id="filter0_d_302_1493" x="8.08301" y="9.66699" width="41.834" height="46.5693" filterUnits="userSpaceOnUse" color-interpolation-filters="sRGB">
<feFlood flood-opacity="0" result="BackgroundImageFix"/>
<feColorMatrix in="SourceAlpha" type="matrix" values="0 0 0 0 0 0 0 0 0 0 0 0 0 0 0 0 0 0 127 0" result="hardAlpha"/>
<feOffset dy="4"/>
<feGaussianBlur stdDeviation="2"/>
<feComposite in2="hardAlpha" operator="out"/>
<feColorMatrix type="matrix" values="0 0 0 0 0.358168 0 0 0 0 0.400106 0 0 0 0 0.672701 0 0 0 0.3 0"/>
<feBlend mode="normal" in2="BackgroundImageFix" result="effect1_dropShadow_302_1493"/>
<feBlend mode="normal" in="SourceGraphic" in2="effect1_dropShadow_302_1493" result="shape"/>
</filter>
</defs>
</svg>
