<svg width="34" height="40" viewBox="0 0 34 40" fill="none" xmlns="http://www.w3.org/2000/svg">
<path d="M17 0.666992C26.3427 0.666993 33.9168 8.24034 33.917 17.583C33.917 30.4566 19.966 37.8861 17.4023 39.1426C17.1466 39.2679 16.8534 39.2679 16.5977 39.1426C14.034 37.8861 0.0830078 30.4566 0.0830078 17.583C0.083184 8.24034 7.65729 0.666992 17 0.666992ZM17 10.333C12.996 10.333 9.75018 13.5791 9.75 17.583C9.75 21.5871 12.9959 24.833 17 24.833C21.0041 24.833 24.25 21.5871 24.25 17.583C24.2498 13.5791 21.004 10.333 17 10.333Z" fill="#F0E685"/>
</svg>
